<?xml version="1.0" standalone="no"?><!DOCTYPE svg PUBLIC "-//W3C//DTD SVG 1.1//EN" "http://www.w3.org/Graphics/SVG/1.1/DTD/svg11.dtd"><svg t="1682400840073" class="icon" viewBox="0 0 1024 1024" version="1.1" xmlns="http://www.w3.org/2000/svg" p-id="2655" xmlns:xlink="http://www.w3.org/1999/xlink" width="200" height="200"><path d="M763.5 318.3c-3.7-84.2-73.6-152-158.7-152H449.2c-86.7 0-157.6 70.3-158.9 156.7-27.8 5.1-49.1 29.6-49.1 58.8 0 33 27 59.9 59.9 59.9h35.2c1.6 0 3-0.3 4.6-0.5 28.5 26.6 66.5 43.1 108.4 43.1h155.6c40.7 0 77.8-15.6 105.9-40.9 5.1 1.7 10.5 2.9 16.2 2.9 28.2 0 51.3-23.1 51.3-51.3v-40.9c0-13.9-5.7-26.6-14.8-35.8z" fill="#B2BBC5" p-id="2656"></path><path d="M839.2 376.9c-2.6-33.6-18.6-64.4-44-85.6 4-21.1 2.3-42.9-5.3-64.3-8.9-25-26-46.9-48.3-61.3-37.8-24.4-80.9-26.1-116.9-10.4-22.4-32.6-59.9-53.4-101.8-53.4-38.4 0-73.8 18.2-96.8 47.2-27.8-11.8-59.9-13.3-91.7-2.5-49.3 16.8-80.6 64.5-80.6 116.6 0 1.2 0 2.4 0.1 3.6-41.3 20.2-69.5 62.5-69.8 110.3-51.9 11.8-90.8 58.2-90.8 113.6 0 64.3 52.3 116.6 116.6 116.6 4.7 0 13.6-0.6 23.6-1.8V655c0 147.4 119.9 267.2 267.2 267.2h22.6c147.4 0 267.2-119.9 267.2-267.2v-50.4c7.7 1.6 15.5 2.7 23.6 2.7 64.3 0 116.6-52.3 116.6-116.6 0-55.7-39.3-102.3-91.5-113.8zM242.1 529.7c-10.1 1.9-26.1 3.8-32.2 3.8-23.6 0-42.8-19.2-42.8-42.8 0-22.4 17.4-40.7 39.4-42.5 12.6 17.8 29.7 32.2 49.3 41.6-5.7 12.9-10.2 26.2-13.7 39.9zM716.8 655c0 98-73.3 179-167.9 191.6v-78.7h16c20.3 0 36.9-16.6 36.9-36.9 0-20.3-16.6-36.9-36.9-36.9H459.1c-20.3 0-36.9 16.6-36.9 36.9 0 20.3 16.6 36.9 36.9 36.9h16v78.7C380.5 834 307.2 753 307.2 655v-58.9c0-34.5 9.6-67.9 27.1-97.6 3.8-0.8 7.6-1.5 11.3-2.7 23 29 58.3 46.9 96.6 46.9 23.5 0 46-6.7 65.5-19 21 15.5 46.7 24.2 73.4 24.2 36.9 0 71.4-16.8 94.6-44.3 6.5 2.3 13.1 3.8 19.9 4.9 2.3 4.5 4.4 9 6.4 13.7 1.5 5.5 3.5 10.8 5.8 15.9 5.9 18.6 9 38.1 9 58V655z m45.6-249.5c-5.9 14.9-19.4 26.2-35 29.8-19.6 4.5-34.2-3.4-42.2-9.7l-1.8-1.4c-18.7-14.8-46.4-7.1-54.8 15.2l-0.8 2.1c-8.3 21.9-29.9 35.2-53.5 32.1-14.6-1.9-27.3-11-35.6-23.1-13.4-19.3-41.6-20.4-56.4-2.2l-1.4 1.7c-9.7 12-23.8 18.8-38.7 18.8-21.2 0-40.1-13.6-47.1-33.9l-0.7-2.1c-7.8-22.7-35.5-31.1-54.6-16.6l-1.8 1.4c-8.1 6.1-22.8 13.7-42.4 8.9-15.6-3.9-28.9-15.6-34.5-30.6-11.8-31.6 9.4-63 39.9-67.2l1.5-0.2c22.4-3.1 36.3-26 28.7-47.2l-0.5-1.4c-6.3-17.8-3-30.4 8.3-45.6 9.4-12.6 23.5-21.2 39.2-21.1 13.3 0.1 25.7 5.4 35.1 14.9l1.4 1.5c19.2 19.4 52.2 11 59.7-15.3l0.6-2c7.6-26.8 36.2-43.5 64.3-33.8 17.9 6.2 30.1 22.9 33.2 41.6 4.9 29.6 42 40.3 61.9 17.8l1.7-1.9c9.7-10.9 22.8-17 36.8-17.1 15-0.1 29.1 8 38.7 19.6 13.3 16.1 15.2 34.5 6.4 52.4-9.2 18.8-1 41.5 18.1 49.9 24 10.6 36.8 38.3 26.3 64.7z m51.7 128c-15.6 0-29.9-8.5-37.5-22.2-1.3-3.9-2.8-7.7-4.2-11.5-0.2-1-0.2-2-0.4-3 21.2-10.8 38.9-27.5 50.9-48.1 19.4 4.1 34 21.3 34 41.9 0 23.7-19.2 42.9-42.8 42.9z" fill="#242529" p-id="2657"></path></svg>