<?xml version="1.0" standalone="no"?><!DOCTYPE svg PUBLIC "-//W3C//DTD SVG 1.1//EN" "http://www.w3.org/Graphics/SVG/1.1/DTD/svg11.dtd"><svg t="1683267033148" class="icon" viewBox="0 0 1024 1024" version="1.1" xmlns="http://www.w3.org/2000/svg" p-id="8321" xmlns:xlink="http://www.w3.org/1999/xlink" width="200" height="200"><path d="M791.31552 675.529447 232.130871 675.529447c-85.729523 0-155.476027-69.683059-155.476027-155.336858 0-70.460772 47.944965-131.689275 114.363677-149.851936-0.077771-1.676176-0.11768-3.355421-0.11768-5.033643 0-59.524698 48.423873-107.951641 107.946524-107.951641 21.946848 0 42.949184 6.573719 60.618613 18.584264 39.746236-81.425498 122.910331-134.359081 215.252459-134.359081 127.439484 0 231.954863 99.994412 239.134379 225.615481 33.350572 4.976338 64.087621 20.595061 88.025822 45.029566 28.535917 29.130458 44.251853 67.606771 44.251853 108.337427 0 41.334407-16.296151 80.289628-45.889143 109.689215C870.853018 659.450237 832.16795 675.529447 791.31552 675.529447zM298.848389 297.372781c-37.456077 0-67.929112 30.476105-67.929112 67.934229 0 5.408173 0.650823 10.828626 1.934049 16.112979 1.338485 5.500271 0.281409 11.311627-2.905166 15.991206-3.188622 4.677533-8.211009 7.788383-13.818727 8.556886-56.69935 7.773034-99.456153 56.878428-99.456153 114.224508 0 63.587224 51.794643 115.319445 115.457592 115.319445l559.184649 0c30.213116 0 58.880015-11.95017 80.721463-33.647331 21.974477-21.830191 34.076096-50.702776 34.076096-81.299631 0-30.196743-11.655458-58.727543-32.821523-80.332606-21.123087-21.562085-49.369408-33.884738-79.533404-34.697243-10.995425-0.294712-19.690458-9.41237-19.465331-20.409842 0.011256-0.556679-0.010233-1.100054-0.023536-1.645476-0.021489-0.814552-0.040932-1.633197-0.040932-2.473331 0-109.953228-89.499383-199.406562-199.508893-199.406562-85.231173 0-161.071466 54.130851-188.723246 134.697795-2.358721 6.874571-8.258081 11.927657-15.410991 13.202697-7.157004 1.278109-14.437827-1.428535-19.028379-7.061836C338.582345 306.508859 319.370795 297.372781 298.848389 297.372781z" fill="#ffffff" p-id="8322"></path><path d="M311.949778 959.62483c-11.04966 0-20.008706-8.959046-20.008706-20.008706L291.941072 730.565924c0-11.04966 8.959046-20.008706 20.008706-20.008706s20.008706 8.959046 20.008706 20.008706l0 209.0502C331.958484 950.665785 322.999438 959.62483 311.949778 959.62483z" fill="#ffffff" p-id="8323"></path><path d="M450.681446 879.588983c-11.04966 0-20.008706-8.959046-20.008706-20.008706L430.67274 730.565924c0-11.04966 8.959046-20.008706 20.008706-20.008706s20.008706 8.959046 20.008706 20.008706L470.690152 859.580277C470.690152 870.629937 461.731106 879.588983 450.681446 879.588983z" fill="#ffffff" p-id="8324"></path><path d="M589.411067 959.62483c-11.04966 0-20.008706-8.959046-20.008706-20.008706L569.402361 730.565924c0-11.04966 8.959046-20.008706 20.008706-20.008706 11.04966 0 20.008706 8.959046 20.008706 20.008706l0 209.0502C609.420797 950.665785 600.460728 959.62483 589.411067 959.62483z" fill="#ffffff" p-id="8325"></path><path d="M728.141712 879.588983c-11.04966 0-20.008706-8.959046-20.008706-20.008706L708.133006 730.565924c0-11.04966 8.959046-20.008706 20.008706-20.008706 11.04966 0 20.008706 8.959046 20.008706 20.008706L748.150418 859.580277C748.150418 870.629937 739.191372 879.588983 728.141712 879.588983z" fill="#ffffff" p-id="8326"></path></svg>