<?xml version="1.0" standalone="no"?><!DOCTYPE svg PUBLIC "-//W3C//DTD SVG 1.1//EN" "http://www.w3.org/Graphics/SVG/1.1/DTD/svg11.dtd"><svg t="1683266923065" class="icon" viewBox="0 0 1154 1024" version="1.1" xmlns="http://www.w3.org/2000/svg" p-id="3171" xmlns:xlink="http://www.w3.org/1999/xlink" width="225.390625" height="200"><path d="M780.288 128q73.728 0 141.312 29.184t119.296 78.848 81.92 115.712 30.208 140.8q0 60.416-19.456 122.88t-46.08 110.592q-13.312 23.552-37.376 43.008t-51.712 33.792-54.272 22.528-45.056 8.192l-714.752 0q-39.936 0-73.216-13.312t-57.856-36.864-38.4-56.832-13.824-73.216q0-55.296 13.312-104.448t40.448-86.016 68.608-58.368 97.792-21.504q24.576 0 42.496 3.072t34.304 8.704 32.256 14.848 34.304 21.504q10.24-62.464 44.032-117.76t87.552-96.768 125.44-65.024 158.72-23.552zM861.184 707.584q32.768 0 62.976-14.336t53.76-41.984 37.376-67.584 13.824-91.136-18.432-95.232-51.2-75.776-77.312-49.664-95.744-17.92-89.6 8.192-66.56 20.48-47.616 27.136-32.768 28.16q-14.336 14.336-27.648 34.304t-23.04 41.472-15.36 43.008-2.56 37.888q4.096 29.696-11.264 50.176t-39.424 29.184-50.688 4.096-44.032-25.088q-19.456-20.48-45.568-31.744t-65.024-11.264q-31.744 0-51.2 12.288t-30.72 30.72-15.36 40.448-4.096 41.472q0 16.384 7.168 29.696t18.944 23.04 26.112 14.848 28.672 5.12l656.384 0z" p-id="3172" fill="#ffffff"></path></svg>