<?xml version="1.0" standalone="no"?><!DOCTYPE svg PUBLIC "-//W3C//DTD SVG 1.1//EN" "http://www.w3.org/Graphics/SVG/1.1/DTD/svg11.dtd"><svg t="1683265578896" class="icon" viewBox="0 0 1024 1024" version="1.1" xmlns="http://www.w3.org/2000/svg" p-id="8804" xmlns:xlink="http://www.w3.org/1999/xlink" width="200" height="200"><path d="M841.009316 290.684452c6.236028 5.664 14.94948 6.192026 19.467377 1.168616l22.470781-24.970718c4.517897-4.997827 3.118014-13.666254-3.118014-19.329231-6.236028-5.687536-14.94948-6.213515-19.467377-1.192152l-22.470781 24.970718C833.373405 276.353049 834.771241 284.997939 841.009316 290.684452z" fill="#ffffff" p-id="8805"></path><path d="M732.824361 238.174518c8.278547 1.488911 15.936971-2.706645 17.129122-9.356089l5.869684-33.157167c1.192152-6.650467-4.562922-13.253862-12.840446-14.743796-8.276501-1.468444-15.959483 2.728134-17.129122 9.378601l-5.892197 33.134655C718.79074 230.101655 724.546837 236.683561 732.824361 238.174518z" fill="#ffffff" p-id="8806"></path><path d="M597.238336 254.018368c3.599991 5.709025 12.289907 6.67298 19.37528 2.155083 7.107885-4.517897 9.974166-12.817933 6.375198-18.526959l-17.908882-28.457122c-3.599991-5.709025-12.267395-6.67298-19.376303-2.155083-7.107885 4.517897-9.950629 12.794397-6.373151 18.526959L597.238336 254.018368z" fill="#ffffff" p-id="8807"></path><path d="M925.230486 507.534292l-31.643698-11.07422c-6.350638-2.223644-13.734816 2.453888-16.508999 10.43363-2.75167 7.978718 0.160659 16.257266 6.512321 18.48091l31.621185 11.05273c6.350638 2.223644 13.757329-2.429329 16.508999-10.432607C934.4955 518.013971 931.583171 509.735423 925.230486 507.534292z" fill="#ffffff" p-id="8808"></path><path d="M735.025493 481.118666c-30.840402-110.959138-130.335441-187.431833-245.972111-187.431833-95.573729 0-183.41945 54.276161-227.100298 139.323139C157.001777 443.673845 76.471672 532.069081 76.471672 639.405715c0 103.872742 76.104305 190.57236 176.538739 205.270107l432.188256-0.870834 24.122397 0c87.478354-16.09763 153.080467-93.164866 153.080467-184.680163C862.402555 578.158792 810.626331 506.617409 735.025493 481.118666zM683.937954 806.315142 283.324834 806.315142l-8.965186-0.480954c-88.213088-4.632507-157.301606-77.733409-157.301606-166.42745 0-88.396259 68.057025-160.672376 155.512866-166.197206 50.490951 2.475378 101.075023 30.611182 127.216403 69.202105l0.137123-0.068562c3.53143 6.144954 9.884115 10.479679 17.451464 10.479679 11.258415 0 20.406772-9.172917 20.406772-20.500916 0-2.911306-0.64059-5.662977-1.74269-8.16189l0.160659-0.068562c-0.825808-1.284249-1.766226-2.340301-2.592035-3.601015-0.711198-0.962931-1.237177-2.040473-2.086521-2.866281-30.840402-44.689828-72.688509-71.931263-124.831077-81.011059 38.935778-62.760392 107.818611-102.108562 182.363398-102.108562 100.640118 0 186.720635 68.835761 209.352075 167.411871l2.75167 11.970636 11.808954 3.140527c64.089667 17.10661 108.850104 75.532277 108.850104 142.098345C821.817208 736.905306 761.256924 801.797245 683.937954 806.315142z" fill="#ffffff" p-id="8809"></path><path d="M946.694333 385.544937c-1.62808-8.30106-8.30106-13.963013-14.905478-12.633738l-32.858362 6.512321c-6.604418 1.306762-10.639315 9.079796-9.011234 17.380856 1.62808 8.30106 8.30106 13.96506 14.905478 12.657274l32.858362-6.534833C944.28547 401.620054 948.322413 393.84702 946.694333 385.544937z" fill="#ffffff" p-id="8810"></path><path d="M681.299871 254.683517c-18.962887 1.214664-35.747155 5.204535-52.647057 13.1853-2.477424 0.711198-4.701069 1.788739-6.719028 3.301186-0.802272 0.412392-1.581008 0.688685-2.360767 1.146103l0.251733 0.459464c-4.357238 4.220115-7.107885 10.067286-6.695492 16.601096 0.756223 11.762905 10.844999 20.682042 22.563902 19.926842 1.214664-0.068562 2.246157-0.642636 3.416819-0.917906l0.251733 0.459464c13.896498-5.961782 28.754904-10.204409 44.668339-11.235902 75.715449-4.88424 141.272537 53.05945 146.133242 129.143289 1.353834 21.256116-2.774183 41.388643-10.248412 59.915601-0.229221 0.549515-0.436952 1.055029-0.596588 1.62808-0.252757 0.574075-0.412392 1.169639-0.665149 1.74269l0.388856 0.183172c-0.412392 1.971911-0.940418 3.921309-0.802272 6.030343 0.779759 12.222369 11.258415 21.509896 23.433712 20.730137 6.282077-0.412392 11.694343-3.486404 15.432481-7.979742l0.434905 0.205685c0.528026-1.054005 0.802272-2.109034 1.283226-3.164063 1.215688-1.994424 2.086521-4.103458 2.614547-6.441713 9.768481-23.779589 13.253862-47.122227 11.419074-75.601862C866.484523 324.20694 780.565688 248.26227 681.299871 254.683517z" fill="#ffffff" p-id="8811"></path></svg>