<?xml version="1.0" standalone="no"?><!DOCTYPE svg PUBLIC "-//W3C//DTD SVG 1.1//EN" "http://www.w3.org/Graphics/SVG/1.1/DTD/svg11.dtd"><svg t="1683266719849" class="icon" viewBox="0 0 1024 1024" version="1.1" xmlns="http://www.w3.org/2000/svg" p-id="9227" xmlns:xlink="http://www.w3.org/1999/xlink" width="200" height="200"><path d="M169.44211 483.615533l-71.631434 0c-14.376429 0-26.047236 11.645225-26.047236 26.045189 0 14.376429 11.670807 26.021653 26.047236 26.021653l71.631434 0c14.376429 0 26.047236-11.645225 26.047236-26.021653C195.489346 495.261781 183.818539 483.615533 169.44211 483.615533z" fill="#ffffff" p-id="9228"></path><path d="M510.454808 194.671725c14.399965 0 26.045189-11.670807 26.045189-26.047236L536.499997 96.991008c0-14.374382-11.645225-26.021653-26.045189-26.021653-14.376429 0-26.047236 11.647271-26.047236 26.021653l0 71.633481C484.408595 183.000917 496.079402 194.671725 510.454808 194.671725z" fill="#ffffff" p-id="9229"></path><path d="M250.383584 732.918505l-50.65468 50.630121c-10.160407 10.183943-10.160407 26.678616 0 36.839023 10.183943 10.184967 26.678616 10.184967 36.839023 0l50.655703-50.65468c10.160407-10.160407 10.160407-26.65508 0-36.815487C277.038664 722.732515 260.568551 722.732515 250.383584 732.918505z" fill="#ffffff" p-id="9230"></path><path d="M250.919796 287.476387c10.160407 10.160407 26.65508 10.160407 36.815487 0 10.183943-10.183943 10.183943-26.678616 0-36.839023l-50.630121-50.655703c-10.184967-10.160407-26.680663-10.160407-36.840046 0-10.160407 10.184967-10.160407 26.680663 0 36.840046L250.919796 287.476387z" fill="#ffffff" p-id="9231"></path><path d="M769.503748 287.476387l50.630121-50.65468c10.183943-10.160407 10.183943-26.65508 0-36.840046-10.161431-10.160407-26.656103-10.160407-36.81651 0l-50.65468 50.655703c-10.160407 10.160407-10.160407 26.65508 0 36.839023C742.824109 297.636794 759.318782 297.636794 769.503748 287.476387z" fill="#ffffff" p-id="9232"></path><path d="M923.099962 483.615533l-71.607898 0c-14.399965 0-26.047236 11.645225-26.047236 26.045189 0 14.376429 11.647271 26.021653 26.047236 26.021653l71.607898 0c14.399965 0 26.047236-11.645225 26.047236-26.021653C949.147198 495.261781 937.499927 483.615533 923.099962 483.615533z" fill="#ffffff" p-id="9233"></path><path d="M770.015402 732.918505c-10.160407-10.184967-26.65508-10.184967-36.81651 0-10.183943 10.160407-10.183943 26.65508 0 36.815487l50.630121 50.65468c10.184967 10.184967 26.656103 10.184967 36.840046 0 10.160407-10.160407 10.160407-26.65508 0-36.839023L770.015402 732.918505z" fill="#ffffff" p-id="9234"></path><path d="M509.944178 260.187881c-137.857764 0-250.009054 112.152313-250.009054 250.009054 0 137.833205 112.151289 249.984495 250.009054 249.984495 137.832182 0 249.984495-112.151289 249.984495-249.984495C759.928672 372.340193 647.77636 260.187881 509.944178 260.187881zM509.944178 711.695135c-111.104447 0-201.52276-90.394776-201.52276-201.499224s90.418312-201.497177 201.52276-201.497177 201.499224 90.39273 201.499224 201.497177S621.047602 711.695135 509.944178 711.695135z" fill="#ffffff" p-id="9235"></path><path d="M510.454808 824.627207c-14.376429 0-26.047236 11.647271-26.047236 26.045189l0 71.608921c0 14.399965 11.670807 26.047236 26.047236 26.047236 14.399965 0 26.045189-11.647271 26.045189-26.047236l0-71.608921C536.50102 836.274478 524.854772 824.627207 510.454808 824.627207z" fill="#ffffff" p-id="9236"></path></svg>