<?xml version="1.0" standalone="no"?><!DOCTYPE svg PUBLIC "-//W3C//DTD SVG 1.1//EN" "http://www.w3.org/Graphics/SVG/1.1/DTD/svg11.dtd"><svg t="1683266764769" class="icon" viewBox="0 0 1024 1024" version="1.1" xmlns="http://www.w3.org/2000/svg" p-id="10013" xmlns:xlink="http://www.w3.org/1999/xlink" width="200" height="200"><path d="M801.572118 410.286434c-33.895995-122.314767-143.364175-206.600405-270.585695-206.600405-105.169271 0-201.788819 59.827597-249.841232 153.572678C165.650761 369.031844 77.06826 466.444455 77.06826 584.76628c0 114.514103 83.723843 210.082716 194.2184 226.293933l475.503784-0.956791 26.514887 0c96.245018-17.754363 168.43006-102.71743 168.43006-203.587791C941.735391 517.254677 884.757702 438.413028 801.572118 410.286434zM745.389538 768.754688 304.622906 768.754688l-9.858532-0.514723c-97.039103-5.091972-173.055404-85.685521-173.055404-183.473685 0-97.436146 74.871221-177.118953 171.093726-183.193299 55.5512 2.733251 111.219057 33.733289 139.952472 76.272127l0.163729-0.069585c3.87833 6.774287 10.863419 11.56336 19.203364 11.56336 12.379958 0 22.449291-10.114358 22.449291-22.61302 0-3.200902-0.700965-6.237051-1.892093-8.993838l0.140193-0.069585c-0.910743-1.401929-1.939165-2.594081-2.849908-3.947915-0.771573-1.073448-1.331321-2.2656-2.2656-3.176342-33.943067-49.2681-79.986729-79.3093-137.360438-89.307002 42.842761-69.192895 118.624724-112.574938 200.64374-112.574938 110.706381 0 205.4103 75.898621 230.312456 184.54918l3.037173 13.198603 12.987802 3.480264c70.501704 18.85237 119.747291 83.257216 119.747291 156.633387C897.070122 692.248224 830.445726 763.800863 745.389538 768.754688z" fill="#ffffff" p-id="10014"></path></svg>