<?xml version="1.0" standalone="no"?><!DOCTYPE svg PUBLIC "-//W3C//DTD SVG 1.1//EN" "http://www.w3.org/Graphics/SVG/1.1/DTD/svg11.dtd"><svg t="1683266758434" class="icon" viewBox="0 0 1024 1024" version="1.1" xmlns="http://www.w3.org/2000/svg" p-id="9805" xmlns:xlink="http://www.w3.org/1999/xlink" width="200" height="200"><path d="M366.408087 602.797959c-25.588795 0-46.331211 20.828374-46.331211 46.508243 0 25.678846 20.742417 46.508243 46.331211 46.508243 25.587771 0 46.331211-20.829398 46.331211-46.508243C412.739299 623.62531 391.995859 602.797959 366.408087 602.797959z" fill="#ffffff" p-id="9806"></path><path d="M362.557386 747.44843c-16.123212 0-29.189809 13.126972-29.189809 29.305443 0 16.20303 13.066597 29.305443 29.189809 29.305443 16.122189 0 29.188786-13.102413 29.188786-29.305443C391.746172 760.575402 378.679575 747.44843 362.557386 747.44843z" fill="#ffffff" p-id="9807"></path><path d="M513.847068 813.335023c-16.148795 0-29.215392 13.126972-29.215392 29.305443 0 16.20303 13.066597 29.330002 29.215392 29.330002 16.122189 0 29.189809-13.126972 29.189809-29.330002C543.0379 826.461995 529.969257 813.335023 513.847068 813.335023z" fill="#ffffff" p-id="9808"></path><path d="M668.938332 604.997044c-29.387307 0-53.211922 23.905456-53.211922 53.384861 0 29.506011 23.824615 53.435003 53.211922 53.435003 29.363771 0 53.188386-23.928992 53.188386-53.435003C722.125695 628.9025 698.302103 604.997044 668.938332 604.997044z" fill="#ffffff" p-id="9809"></path><path d="M804.900933 354.554108c-34.133402-122.647341-144.260591-207.188806-272.222985-207.188806-105.803721 0-203.01167 60.011792-251.355725 154.00349C165.133991 313.170582 76.024487 410.863578 76.024487 529.508769c0 104.818277 70.254064 193.609533 167.016875 220.690308l0.223081-0.949628c1.515516 0.37453 2.981914 0.949628 4.620227 0.949628 11.527544 0 20.892843-9.402137 20.892843-20.9788 0-9.977235-7.080256-17.929348-16.370853-20.053732l0.223081-0.925069c-82.401732-28.655643-131.689275-92.115977-131.689275-178.732707 0-97.716532 75.323523-177.580464 172.108846-183.708022 55.895031 2.75167 111.889323 33.831526 140.806933 76.489068l0.173962-0.074701c3.875261 6.80294 10.905374 11.603269 19.302625 11.603269 12.471033 0 22.580275-10.153244 22.580275-22.679535 0-3.199878-0.720408-6.250354-1.911536-9.002025l0.149403-0.099261c-0.89437-1.401929-1.938142-2.575662-2.858094-3.950985-0.77055-1.075495-1.366114-2.251274-2.310625-3.176342-34.133402-49.408293-80.440054-79.514985-138.148383-89.540316 43.077098-69.387323 119.317503-112.896256 201.845101-112.896256 111.367437 0 206.638267 76.088956 231.679593 185.058786l3.056616 13.252839 13.091156 3.474125c70.924329 18.904559 120.461559 83.46597 120.461559 157.053965 0 74.262354-43.748387 139.200342-112.512517 158.379147l0.025583 0.099261c-7.701402 3.100618-13.216 10.577916-13.216 19.429515 0 11.576663 9.365298 20.9788 20.891819 20.9788 1.416256 0 2.65855-0.550539 3.999081-0.799202l0 0.050142c0.125867-0.050142 0.249687-0.100284 0.373507-0.124843 1.987261-0.450255 3.825119-1.025353 5.564739-2.000564 81.557504-28.130687 139.788743-105.519242 139.788743-196.010209C945.881828 461.823204 888.570541 382.732891 804.900933 354.554108z" fill="#ffffff" p-id="9810"></path><path d="M668.938332 763.426333c-16.122189 0-29.215392 13.126972-29.215392 29.305443 0 16.20303 13.093203 29.330002 29.215392 29.330002 16.123212 0 29.189809-13.126972 29.189809-29.330002C698.128141 776.553305 685.061544 763.426333 668.938332 763.426333z" fill="#ffffff" p-id="9811"></path><path d="M513.847068 667.7339c-25.862018 0-46.828538 21.028942-46.828538 46.983057s20.966521 47.00864 46.828538 47.00864c25.835412 0 46.802956-21.053502 46.802956-47.00864S539.682479 667.7339 513.847068 667.7339z" fill="#ffffff" p-id="9812"></path></svg>