<?xml version="1.0" standalone="no"?><!DOCTYPE svg PUBLIC "-//W3C//DTD SVG 1.1//EN" "http://www.w3.org/Graphics/SVG/1.1/DTD/svg11.dtd"><svg t="1683266731213" class="icon" viewBox="0 0 1024 1024" version="1.1" xmlns="http://www.w3.org/2000/svg" p-id="9597" xmlns:xlink="http://www.w3.org/1999/xlink" width="200" height="200"><path d="M128.977513 730.527039c3.897773 0 7.515161-0.958838 10.82658-2.413979l0.127913 0.182149c1.452071-0.986467 107.524922-86.857207 279.880385-42.869367l0.229221-0.675382c1.223874 0.155543 2.317789 0.675382 3.566222 0.675382 14.111392 0 25.549909-10.794857 25.549909-24.134677 0-9.263991-5.731538-17.075911-13.83203-21.096481l0.051165-0.182149c-0.204661-0.051165-0.382717-0.104377-0.585331-0.155543-2.828418-1.324158-5.936199-2.075265-9.247618-2.308579-170.699754-45.102221-272.161586 25.846668-306.474067 46.036499-0.663102 0.258896-1.171686 0.753153-1.809205 1.089821-3.464915 2.075265-6.062066 3.710508-6.750751 4.178159l0.101307 0.128937c-4.611018 4.41045-7.489578 10.431583-7.489578 17.127076C103.121636 719.602222 114.688065 730.527039 128.977513 730.527039z" fill="#ffffff" p-id="9598"></path><path d="M659.44512 794.754852c-0.076748 0-0.127913 0.026606-0.204661 0.026606-45.750997-4.334725-74.358545-12.898775-139.086755-37.914518-199.944821-82.522482-362.900194 1.713015-401.084864 24.445762-0.663102 0.25992-1.171686 0.779759-1.809205 1.089821-3.464915 2.128477-6.062066 3.76372-6.750751 4.230348l0.101307 0.130983c-4.611018 4.462638-7.489578 10.586103-7.489578 17.334807 0 13.649881 11.56643 24.704658 25.855878 24.704658 3.897773 0 7.515161-0.958838 10.82658-2.438539l0.127913 0.181125c1.604544-1.089821 161.860435-106.578364 360.505657-24.65247 70.587662 27.299763 105.003496 37.083593 156.306952 41.677215l0.024559-0.518816c0.917906 0.104377 1.732457 0.518816 2.674922 0.518816 14.086833 0 25.52535-10.924817 25.52535-24.419156C684.969447 805.679669 673.531953 794.754852 659.44512 794.754852z" fill="#ffffff" p-id="9599"></path><path d="M517.861498 679.767981c0-13.337773-11.438517-24.133653-25.549909-24.133653-14.086833 0-25.52535 10.794857-25.52535 24.133653 0 13.313214 11.438517 24.133653 25.52535 24.133653C506.422981 703.901635 517.861498 693.081195 517.861498 679.767981z" fill="#ffffff" p-id="9600"></path><path d="M888.862183 657.268548c-6.903224 0-13.118785 2.647293-17.756409 6.825452l-0.202615-0.207731c-0.942465 0.829901-91.069135 76.18924-298.680567 13.208836-3.463891-1.635243-7.18361-2.777253-11.30958-2.777253-14.112416 0-25.549909 10.794857-25.549909 24.133653 0 9.447163 5.884011 17.412578 14.264888 21.383006l-0.382717 0.777713c71.250764 22.811542 126.732379 29.894867 176.049598 29.894867 104.671944 0 161.401993-36.744879 176.431292-48.111764 7.617491-4.25593 12.966313-11.755742 12.966313-20.708648C914.691455 668.219971 903.126049 657.268548 888.862183 657.268548z" fill="#ffffff" p-id="9601"></path><path d="M801.588491 380.844891C767.632121 255.348666 657.966443 168.855756 530.546402 168.855756c-105.334024 0-202.134697 61.398372-250.279207 157.570735C164.590616 338.494341 75.839269 438.480566 75.839269 559.876404c0 27.611871 5.121648 53.900607 13.704117 78.526471 0.458441 3.269463 1.477654 6.228865 3.082198 8.952906 0 0 0 0.026606 0.026606 0.053212 4.049223 6.773264 10.979052 11.546987 19.257599 11.546987 12.710486 0 22.976294-10.612709 22.976294-23.719214 0-2.620687-0.686638-5.059226-1.452071-7.421017l0.026606 0c-0.026606-0.051165-0.026606-0.103354-0.051165-0.155543-0.254803-0.804319-0.433882-1.583055-0.789992-2.360767-7.463995-20.449751-12.048407-42.324968-12.048407-65.422012 0-99.986225 74.994018-181.730994 171.361833-187.984419 55.685253 2.802836 111.421672 34.618449 140.233881 78.266551l0.151449-0.077771c3.872191 6.955412 10.877745 11.860119 19.208481 11.860119 12.431124 0 22.493294-10.380418 22.493294-23.174815 0-3.294023-0.688685-6.40999-1.910513-9.237385l0.152473-0.077771c-0.892323-1.426489-1.937119-2.647293-2.852978-4.047176-0.76441-1.089821-1.349741-2.310625-2.267647-3.244904-34.006512-50.577932-80.114642-81.379449-137.583518-91.63093 42.922578-71.001077 118.80892-115.505687 200.98757-115.505687 110.887506 0 205.753107 77.851089 230.691079 189.334159l3.031033 13.545504 13.043061 3.555989c70.614268 19.333324 119.931486 85.428671 119.931486 160.736844 0 18.190291-3.209088 35.603893-8.53335 52.055586l0.382717 0.104377c-0.332575 1.583055-0.917906 3.061732-0.917906 4.722558 0 12.845563 10.087753 23.277146 22.543436 23.277146 10.087753 0 18.317181-6.955412 21.194718-16.374946l0.229221 0.053212c7.998161-22.603811 9.831926-38.485523 9.831926-63.837934C941.973822 490.61597 884.913245 409.702126 801.588491 380.844891z" fill="#ffffff" p-id="9602"></path><path d="M727.535915 794.754852c-14.086833 0-25.52535 10.924817-25.52535 24.393573 0 13.494339 11.438517 24.419156 25.52535 24.419156 14.111392 0 25.549909-10.924817 25.549909-24.419156C753.085824 805.679669 741.64833 794.754852 727.535915 794.754852z" fill="#ffffff" p-id="9603"></path><path d="M888.862183 754.713904c-6.903224 0-13.118785 2.671852-17.756409 6.877641l-0.202615-0.208754c-0.535189 0.467651-24.379247 24.835641-86.4837 34.748409l0.076748 0.338714c-9.655917 3.477194-16.584724 12.247952-16.584724 22.680559 0 13.494339 11.412934 24.419156 25.52535 24.419156 0.917906 0 1.707898-0.414439 2.599198-0.493234l0.12689 0.493234c63.124689-10.69048 94.050026-34.409694 105.563244-43.208081 7.617491-4.308119 12.966313-11.884678 12.966313-20.967544C914.691455 765.767658 903.126049 754.713904 888.862183 754.713904z" fill="#ffffff" p-id="9604"></path></svg>