<?xml version="1.0" standalone="no"?><!DOCTYPE svg PUBLIC "-//W3C//DTD SVG 1.1//EN" "http://www.w3.org/Graphics/SVG/1.1/DTD/svg11.dtd"><svg t="1683268505912" class="icon" viewBox="0 0 1024 1024" version="1.1" xmlns="http://www.w3.org/2000/svg" p-id="11315" xmlns:xlink="http://www.w3.org/1999/xlink" width="200" height="200"><path d="M390.041344 291.14187c-17.325597 0-31.373545 14.042831-31.373545 31.373545l0 30.607088c0 17.330714 14.047947 31.373545 31.373545 31.373545 17.325597 0 31.373545-14.042831 31.373545-31.373545l0-30.607088C421.414889 305.184701 407.366941 291.14187 390.041344 291.14187z" fill="#ffffff" p-id="11316"></path><path d="M634.906238 291.14187c-17.325597 0-31.373545 14.042831-31.373545 31.373545l0 30.607088c0 17.330714 14.047947 31.373545 31.373545 31.373545 17.330714 0 31.373545-14.042831 31.373545-31.373545l0-30.607088C666.279782 305.184701 652.236951 291.14187 634.906238 291.14187z" fill="#ffffff" p-id="11317"></path><path d="M589.845972 433.231005c-14.338566-9.447163-33.716916-5.432733-43.352367 8.79327-0.13303 0.194428-13.674441 19.84293-34.329876 19.84293-20.083407 0-32.573883-18.189268-33.42118-19.455097-9.216919-14.492062-28.412097-18.903535-43.020816-9.804297-14.721283 9.140171-19.240203 28.482705-10.094916 43.199894 11.259438 18.127869 42.163285 48.806589 86.536912 48.806589 44.159756 0 75.441203-30.444383 86.966701-48.439222C608.387257 461.71371 604.189655 442.667935 589.845972 433.231005z" fill="#ffffff" p-id="11318"></path><path d="M820.367183 520.068769c-15.074324-8.55791-34.212196-3.309372-42.771129 11.753695-35.530215 62.562894-199.964264 271.605931-262.511809 350.47828-63.799048-78.627778-232.226039-288.153816-267.725554-350.665545-8.563026-15.064091-27.712155-20.594037-42.776246-12.036128-15.069207 8.55791-20.343327 27.207665-11.790534 42.270732 46.40182 81.70179 288.044322 375.950418 298.308083 388.481825 5.963829 7.271614 14.869662 9.489118 24.270776 9.489118 0.061398 0 0.122797 0 0.179079 0 9.467629 0 18.403139-2.38942 24.316825-9.782807 10.023284-12.521175 245.973134-305.654398 292.286949-387.202693C840.711534 547.792181 835.431274 528.626679 820.367183 520.068769z" fill="#ffffff" p-id="11319"></path><path d="M512.476861 64.47136c-200.848401 0-364.250958 151.087067-364.250958 336.804862 0 16.268522 1.470491 33.069163 4.370541 49.930179 2.935865 17.065677 19.092847 28.483728 36.239366 25.603121 17.075911-2.940982 28.53387-19.169595 25.598005-36.244482-2.298346-13.358239-3.461845-26.573215-3.461845-39.287795 0-151.116743 135.251404-274.057773 301.503868-274.057773 166.242232 0 301.498752 122.940007 301.498752 274.057773 0 12.827143-1.184989 26.164916-3.523243 39.666418-2.961448 17.065677 8.486278 33.3035 25.562189 36.264948 1.807159 0.316202 3.605108 0.469698 5.3918 0.469698 14.971993 0 28.227901-10.764158 30.873148-26.031886 2.951215-17.014512 4.442172-33.967626 4.442172-50.369178C876.722702 215.557404 713.319122 64.47136 512.476861 64.47136z" fill="#ffffff" p-id="11320"></path></svg>